# xmcd
#
# Track frame offsets: 
#        150
#        9698
#        20741
#        30644
#        41460
#        51956
#        63725
#        77447
#        85737
#        94340
#        102686
#        110948
#        124202
#        134309
#        146515
#        159821
#        169988
#        181320
#        192962
#        205570
#        218014
#        225032
#        231494
#        243785
#        253812
#        265126
#        273801
#        283285
#        297169
#        307656
#
# Disc length: 4251 seconds
#
# Revision: 0
# Processed by: cddbd v1.5.2PL0 Copyright (c) Steve Scherf et al.
# Submitted via: ExactAudioCopy v0.95a5
#
DISCID=aa10991e
DTITLE=Various Artist - Thirty Years of Bluegrass
DYEAR=2006
DGENRE=Bluegrass
TTITLE0=How Mountain Girls Can Love - Stanley Brothers
TTITLE1=Blue Ridge Mountain Blues - Bill Clifton
TTITLE2=Pardon Me - Jim and Jesse
TTITLE3=Orange Blossum Special - Benny Martin
TTITLE4=Blue Eyed Darling - Jimmy Martin and Bob Osbourne
TTITLE5=I Know You're Married - Reno and Smiley
TTITLE6=Poor Rambler - Ralph Stanley
TTITLE7=Cotton Eyed Joe - Tommy Jackson
TTITLE8=Paul and Silas - Carl Story
TTITLE9=Dreaming - Kentucky Travelers
TTITLE10=Bending The Strings - Allen Shelton
TTITLE11=Log Cabin In The Lane - Jim Eanes
TTITLE12=Willow Garden - Charlie Monroe
TTITLE13=Lonesome Fiddle Blues - New Grass Revival
TTITLE14=Wreck of Number Nine - Stoneman Family
TTITLE15=I Wouldn't Change You If I Could - Reno and Smiley
TTITLE16=Beautiful Blue Eyes - Red Allen
TTITLE17=I Still Write Your Name In The Sand - Mac Wiseman
TTITLE18=Old Rattler - Grandpa Jones
TTITLE19=Cripple Creek - Red Herron
TTITLE20=Rank Strangers - Stanley Brothers
TTITLE21=Banjo Whizz - Bill Emerson
TTITLE22=She's Just A Cute Thing - Jimmy Martin and Bob Osbourne
TTITLE23=Eatin' Out Of Your Hand - Bill Harrell
TTITLE24=The Girl In The Blue Velvet Band - Hylo Brown
TTITLE25=Me And The Juke Box - Buzz Busby
TTITLE26=Truck Driver's Queen - Moore and Napier
TTITLE27=Talking Fiddle Blues - Scotty Stoneman
TTITLE28=Barn Yard Banjo Pickin' - Stringbean
TTITLE29=New Freedom Bell - Country Gentlemen
EXTD=
EXTT0=
EXTT1=
EXTT2=
EXTT3=
EXTT4=
EXTT5=
EXTT6=
EXTT7=
EXTT8=
EXTT9=
EXTT10=
EXTT11=
EXTT12=
EXTT13=
EXTT14=
EXTT15=
EXTT16=
EXTT17=
EXTT18=
EXTT19=
EXTT20=
EXTT21=
EXTT22=
EXTT23=
EXTT24=
EXTT25=
EXTT26=
EXTT27=
EXTT28=
EXTT29=
PLAYORDER=
